<svg xmlns="http://www.w3.org/2000/svg" xmlns:xlink="http://www.w3.org/1999/xlink" version="1.1" id="Capa_1" x="0px" y="0px" viewBox="0 0 512 512" style="enable-background:new 0 0 512 512;" xml:space="preserve">
    <path style="fill:#B9DD39;" d="M325.386,103.094l-13.601,47.39l-14.411-4.137h-82.807l-14.411,4.137l-13.601-47.39  c-6.516-22.686-2.468-47.69,10.833-66.857L222.502,0h66.937l25.114,36.237C327.855,55.405,331.902,80.409,325.386,103.094z"/>
    <path style="fill:#54E360;" d="M297.374,146.347H256.01V0h33.429l25.114,36.237c13.302,19.168,17.349,44.172,10.833,66.857  l-13.601,47.39L297.374,146.347z"/>
    <path style="fill:#B9DD39;" d="M185.304,452.782L185.304,452.782l-44.641-58.381l0,0l-4.431-14.321  c-40.921,12.661-71.02,48.275-76.681,90.729l-4.734,35.493l35.493,4.734c4.841,0.647,9.687,0.963,14.518,0.963  c26,0,51.418-9.222,71.423-26.241c8.499-7.216,15.806-15.614,21.72-24.961L185.304,452.782z"/>
    <path style="fill:#54E360;" d="M451.703,470.855c-5.651-42.372-35.693-77.918-76.535-90.554l-4.431,14.322l-44.542,58.25l0,0  l-12.667,8.016c5.902,9.328,13.197,17.71,21.668,24.904c19.977,16.995,45.346,26.199,71.299,26.199  c4.819,0,9.659-0.317,14.488-0.961l35.446-4.728L451.703,470.855z"/>
    <path style="fill:#B9DD39;" d="M155.595,171.029l0.653-14.975c-40.833-1.791-80.765,14.278-112.446,45.218  C16.292,228.136-0.44,262.835,0.137,291.823L0.5,310.086l17.843-3.921c64.794-14.238,104.626-23.534,105.022-23.627l-3.411-14.597  l0,0l30.17-82.034c1.591,0.001,3.194,0.025,4.82,0.095L155.595,171.029L155.595,171.029L155.595,171.029z"/>
    <path style="fill:#54E360;" d="M468.196,201.269c-31.679-30.937-71.602-47.012-112.445-45.216l1.306,29.952  c1.626-0.07,3.229-0.094,4.82-0.095l30.169,82.033l-3.41,14.598c0.395,0.093,40.228,9.389,105.022,23.627l17.843,3.921l0.363-18.263  C512.44,262.834,495.706,228.135,468.196,201.269z"/>
    <path style="fill:#00AB5E;" d="M416.148,280.631v0.03c0,10.543-0.71,21.097-2.089,31.52c-5.177,39.055-19.777,76.481-41.843,106.212  c-0.55,0.75-1.109,1.489-1.669,2.229c-6.026,7.885-12.442,15.07-19.188,21.526c-27.562,26.423-60.631,40.684-95.349,40.694h-0.04  c-34.718,0-67.797-14.251-95.359-40.654c-6.756-6.476-13.182-13.671-19.218-21.566c-0.55-0.72-1.099-1.449-1.649-2.189  c-22.066-29.741-36.687-67.177-41.863-106.252c-1.379-10.423-2.089-20.977-2.089-31.52v-0.03  c0.01-45.981,13.521-84.066,39.245-110.959c2.678-2.808,5.496-5.496,8.445-8.055c5.027-4.357,10.413-8.355,16.15-11.962  c25.933-16.35,58.812-24.904,96.338-24.904h0.04c37.516,0.01,70.405,8.575,96.328,24.934c5.726,3.598,11.103,7.575,16.12,11.932  c2.958,2.568,5.786,5.267,8.475,8.085C402.637,196.594,416.138,234.67,416.148,280.631z"/>
    <path style="fill:#009954;" d="M416.148,280.631v0.03c0,10.543-0.71,21.097-2.089,31.52c-5.177,39.055-19.777,76.481-41.843,106.212  c-0.55,0.75-1.109,1.489-1.669,2.229c-6.026,7.885-12.442,15.07-19.188,21.526c-27.562,26.423-60.631,40.684-95.349,40.694V124.75  c37.516,0.01,70.405,8.575,96.328,24.934c5.726,3.598,11.103,7.575,16.12,11.932c2.958,2.568,5.786,5.267,8.475,8.085  C402.637,196.594,416.138,234.67,416.148,280.631z"/>
    <path style="fill:#007F40;" d="M341.826,280.631l-27.752-48.059l62.86-62.87c-2.688-2.818-5.516-5.516-8.475-8.085  c-5.017-4.357-10.393-8.335-16.12-11.932l-64.519,64.519h-63.639l-64.549-64.549c-5.736,3.608-11.123,7.605-16.15,11.962  c-2.948,2.558-5.766,5.247-8.445,8.055l62.9,62.9l-27.752,48.059H95.793v0.03c0,10.543,0.71,21.097,2.089,31.52h72.304  l27.752,48.069l-58.193,58.183c0.55,0.74,1.099,1.469,1.649,2.189c6.036,7.895,12.462,15.09,19.218,21.566l63.569-63.569h63.639  l63.539,63.529c6.746-6.456,13.162-13.641,19.188-21.526c0.56-0.74,1.119-1.479,1.669-2.229l-58.143-58.143l27.752-48.069h72.234  c1.379-10.423,2.089-20.977,2.089-31.52v-0.03L341.826,280.631L341.826,280.631z M285.252,347.068h-58.493l-29.251-50.658  l29.251-50.658h58.493l29.251,50.658L285.252,347.068z"/>
    <path style="fill:#007539;" d="M416.148,280.631v0.03c0,10.543-0.71,21.097-2.089,31.52h-72.234l-27.752,48.069l58.143,58.143  c-0.55,0.75-1.109,1.489-1.669,2.229c-6.026,7.885-12.442,15.07-19.188,21.526l-63.539-63.529h-31.81v-31.55h29.241l29.251-50.658  l-29.251-50.658H256.01v-31.55h31.81l64.519-64.519c5.726,3.598,11.103,7.575,16.12,11.932c2.958,2.568,5.786,5.267,8.475,8.085  l-62.86,62.87l27.752,48.059H416.148z"/>
    <g>
    </g>
    <g>
    </g>
    <g>
    </g>
    <g>
    </g>
    <g>
    </g>
    <g>
    </g>
    <g>
    </g>
    <g>
    </g>
    <g>
    </g>
    <g>
    </g>
    <g>
    </g>
    <g>
    </g>
    <g>
    </g>
    <g>
    </g>
    <g>
    </g>
</svg>